<svg xmlns="http://www.w3.org/2000/svg" viewBox="0 0 60.17 49.47"><g id="Layer_2" data-name="Layer 2"><g id="Layer_1-2" data-name="Layer 1"><path d="M54.82,0H42.34a14.88,14.88,0,0,0-9.13,3.78l-21,21a5.36,5.36,0,0,0,0,7.56L27.86,47.91a5.37,5.37,0,0,0,7.57,0l21-21a14.89,14.89,0,0,0,3.78-9.12V5.35A5.37,5.37,0,0,0,54.82,0ZM47.69,17.83A5.35,5.35,0,1,1,53,12.48,5.36,5.36,0,0,1,47.69,17.83Zm-43.3,12L23.46,48.85a5.36,5.36,0,0,1-6.29-.94L1.56,32.3a5.36,5.36,0,0,1,0-7.56l21-21A14.86,14.86,0,0,1,31.65,0L4.39,27.26A1.77,1.77,0,0,0,4.39,29.78Z"/></g></g></svg>