<svg xmlns="http://www.w3.org/2000/svg" viewBox="0 0 52.77 46.68"><g id="Layer_2" data-name="Layer 2"><g id="Layer_1-2" data-name="Layer 1"><path d="M52.29,5.85l-4.7-4.7a1.67,1.67,0,0,0-2.37,0,1.62,1.62,0,0,0-.44,1.39,1.7,1.7,0,0,0-1,.36l0,0L31.56,15.05a4.63,4.63,0,0,1-.76,3.09l1.28,1.3,0,0,.12.13-2.68,2.69L20.72,13.4A10.54,10.54,0,0,0,7.8.37l6,6L12.21,12.2,6.34,13.77l-6-6a10.56,10.56,0,0,0,13.47,12.8l0,0,8.64,8.64L14.3,37.48,13.85,37l-2.3,1.86L7.65,45l1,1,6.13-3.89,1.87-2.3-.45-.44,8.22-8.22,14,14a5,5,0,1,0,7.05-7l-14.06-14,2.64-2.64,1.15,1.17a4.63,4.63,0,0,1,3.13-.79l12-12,.17-.17,0,0a1.63,1.63,0,0,0,.36-1,1.65,1.65,0,0,0,1.4-2.81ZM42.43,40.58a1.91,1.91,0,1,1-1.9,1.9A1.9,1.9,0,0,1,42.43,40.58ZM35.6,15.71l-.79-.79,9-9,.79.78Zm2.94,2.95-.78-.79,9-9,.79.79Z"/></g></g></svg>